<?xml version="1.0" encoding="utf-8"?>
<!-- Generator: Adobe Illustrator 17.1.0, SVG Export Plug-In . SVG Version: 6.00 Build 0)  -->
<!DOCTYPE svg PUBLIC "-//W3C//DTD SVG 1.1//EN" "http://www.w3.org/Graphics/SVG/1.1/DTD/svg11.dtd">
<svg version="1.1" id="graph-6" xmlns="http://www.w3.org/2000/svg" xmlns:xlink="http://www.w3.org/1999/xlink" x="0px" y="0px"
	 viewBox="0 0 1010 1010" enable-background="new 0 0 1010 1010" xml:space="preserve">
<g id="graph-6-graph-6">
	<path fill="#323B5A" d="M991.6367,973.2734H36.7271V18.3638C36.7271,8.2134,28.5137,0,18.3633,0C8.2314,0,0,8.2134,0,18.3638
		v973.2729C0,1001.7871,8.2314,1010,18.3633,1010h973.2734c10.1505,0,18.3633-8.2129,18.3633-18.3633
		S1001.7871,973.2734,991.6367,973.2734z"/>
	<path fill="#323B5A" d="M829.1611,725.8652c-8.1064,0-14.6875,6.5645-14.6875,14.6875c0,8.1065,6.5811,14.6876,14.6875,14.6876
		c8.1065,0,14.7051-6.5811,14.7051-14.6876C843.8662,732.4297,837.2676,725.8652,829.1611,725.8652z"/>
	<path fill="#323B5A" d="M829.1611,814.0078c-8.1064,0-14.6875,6.5635-14.6875,14.6875c0,8.1055,6.5811,14.6875,14.6875,14.6875
		c8.1065,0,14.7051-6.582,14.7051-14.6875C843.8662,820.5713,837.2676,814.0078,829.1611,814.0078z"/>
	<path fill="#323B5A" d="M785.0996,608.332c-8.1064,0-14.6875,6.5811-14.6875,14.7051c0,8.1055,6.5811,14.6875,14.6875,14.6875
		c8.1055,0,14.6875-6.582,14.6875-14.6875C799.7871,614.9131,793.2051,608.332,785.0996,608.332z"/>
	<path fill="#323B5A" d="M829.1611,652.4121c-8.1064,0-14.6875,6.5625-14.6875,14.6865c0,8.1065,6.5811,14.6875,14.6875,14.6875
		c8.1065,0,14.7051-6.581,14.7051-14.6875C843.8662,658.9746,837.2676,652.4121,829.1611,652.4121z"/>
	<path fill="#323B5A" d="M785.0996,696.4912c-8.1064,0-14.6875,6.5635-14.6875,14.6875c0,8.1065,6.5811,14.6865,14.6875,14.6865
		c8.1055,0,14.6875-6.58,14.6875-14.6865C799.7871,703.0547,793.2051,696.4912,785.0996,696.4912z"/>
	<path fill="#323B5A" d="M785.0996,769.9277c-8.1064,0-14.6875,6.5822-14.6875,14.6875c0,8.1055,6.5811,14.7051,14.6875,14.7051
		c8.1055,0,14.6875-6.5996,14.6875-14.7051C799.7871,776.5098,793.2051,769.9277,785.0996,769.9277z"/>
	<path fill="#323B5A" d="M152.7554,905.7188h162.726c10.1324,0,18.3638-8.2139,18.3638-18.3633V146.73
		c0-10.1504-8.2314-18.3638-18.3638-18.3638h-162.726c-10.1324,0-18.3638,8.2134-18.3638,18.3638v740.6255
		C134.3916,897.5049,142.623,905.7188,152.7554,905.7188z M171.1187,813.3984l55.3959,55.5928h-55.3959V813.3984z
		 M278.3594,868.9912L171.1187,761.3555V654.958l125.999,126.4658v87.5674H278.3594z M297.1177,306.1387v106.3979l-125.999-126.4653
		V179.6914L297.1177,306.1387z M297.1177,464.5786V570.959l-125.999-126.4653V338.1133L297.1177,464.5786z M297.1177,623.001
		v106.3799L171.1187,602.916V496.5352L297.1177,623.001z M297.1177,254.1143l-88.6978-89.0206h88.6978V254.1143z"/>
	<path fill="#323B5A" d="M437.499,905.7188h162.7256c10.1504,0,18.3643-8.2139,18.3643-18.3633V372.5454
		c0-10.1504-8.2139-18.3638-18.3643-18.3638H437.499c-10.1323,0-18.3637,8.2134-18.3637,18.3638v514.8101
		C419.1353,897.5049,427.3667,905.7188,437.499,905.7188z M455.8628,390.9087h125.9985v478.0825H455.8628V390.9087z"/>
	<path fill="#323B5A" d="M885.0059,550.1016H722.2793c-10.1504,0-18.3633,8.2148-18.3633,18.3642v318.8897
		c0,10.1494,8.2129,18.3633,18.3633,18.3633h162.7266c10.1494,0,18.3632-8.2139,18.3632-18.3633V568.4658
		C903.3691,558.3164,895.1553,550.1016,885.0059,550.1016z"/>
</g>
</svg>
